ffmpeg started on 2016-12-12 at 08:39:31
Report written to "Output/theora/results/ffmpeg/Tsintel10000k.log"
Command line:
Tools/ffmpeg/ffmpeg -i Output/theora/encoded/sintel10000k.mkv -c:v rawvideo -pix_fmt yuv420p Output/theora/transcoded/sintel10000k.yuv
ffmpeg version N-82227-gdb23fde Copyright (c) 2000-2016 the FFmpeg developers
  built with gcc 5.4.0 (Ubuntu 5.4.0-6ubuntu1~16.04.2) 20160609
  configuration: --prefix=/home/jaroslav/ffmpeg_build --pkg-config-flags=--static --extra-cflags=-I/home/jaroslav/ffmpeg_build/include --extra-ldflags=-L/home/jaroslav/ffmpeg_build/lib --bindir=/home/jaroslav/bin --enable-gpl --enable-libass --enable-libfdk-aac --enable-libfreetype --enable-libmp3lame --enable-libopus --enable-libtheora --enable-libvorbis --enable-libvpx --enable-libx264 --enable-libx265 --enable-nvenc --enable-libmfx --enable-libxvid --enable-libgsm --enable-libopencore-amrnb --enable-version3 --enable-nonfree
  libavutil      55. 35.100 / 55. 35.100
  libavcodec     57. 66.101 / 57. 66.101
  libavformat    57. 57.100 / 57. 57.100
  libavdevice    57.  2.100 / 57.  2.100
  libavfilter     6. 66.100 /  6. 66.100
  libswscale      4.  3.100 /  4.  3.100
  libswresample   2.  4.100 /  2.  4.100
  libpostproc    54.  2.100 / 54.  2.100
Input #0, matroska,webm, from 'Output/theora/encoded/sintel10000k.mkv':
  Metadata:
    ENCODER         : Lavf57.57.100
  Duration: 00:00:20.83, start: 0.000000, bitrate: 10111 kb/s
    Stream #0:0: Video: theora, yuv420p(progressive), 4096x1744 [SAR 1:1 DAR 256:109], 24 fps, 24 tbr, 1k tbn, 24 tbc (default)
    Metadata:
      ENCODER         : Lavc57.66.101 libtheora
      DURATION        : 00:00:20.834000000
Output #0, rawvideo, to 'Output/theora/transcoded/sintel10000k.yuv':
  Metadata:
    encoder         : Lavf57.57.100
    Stream #0:0: Video: rawvideo (I420 / 0x30323449), yuv420p, 4096x1744 [SAR 1:1 DAR 256:109], q=2-31, 200 kb/s, 24 fps, 24 tbn, 24 tbc (default)
    Metadata:
      DURATION        : 00:00:20.834000000
      encoder         : Lavc57.66.101 rawvideo
Stream mapping:
  Stream #0:0 -> #0:0 (theora (native) -> rawvideo (native))
Press [q] to stop, [?] for help
frame=   21 fps=0.0 q=-0.0 size=  219744kB time=00:00:00.87 bitrate=2057306.1kbits/s speed=1.68x    frame=   42 fps= 40 q=-0.0 size=  439488kB time=00:00:01.75 bitrate=2057306.1kbits/s speed=1.68x    frame=   63 fps= 40 q=-0.0 size=  659232kB time=00:00:02.62 bitrate=2057306.1kbits/s speed=1.68x    frame=   84 fps= 40 q=-0.0 size=  878976kB time=00:00:03.50 bitrate=2057306.1kbits/s speed=1.68x    frame=  105 fps= 40 q=-0.0 size= 1098720kB time=00:00:04.37 bitrate=2057306.1kbits/s speed=1.68x    frame=  126 fps= 40 q=-0.0 size= 1318464kB time=00:00:05.25 bitrate=2057306.1kbits/s speed=1.69x    frame=  147 fps= 40 q=-0.0 size= 1538208kB time=00:00:06.12 bitrate=2057306.1kbits/s speed=1.69x    frame=  168 fps= 40 q=-0.0 size= 1757952kB time=00:00:07.00 bitrate=2057306.1kbits/s speed=1.68x    frame=  189 fps= 40 q=-0.0 size= 1977696kB time=00:00:07.87 bitrate=2057306.1kbits/s speed=1.68x    frame=  210 fps= 40 q=-0.0 size= 2197440kB time=00:00:08.75 bitrate=2057306.1kbits/s speed=1.68x    frame=  231 fps= 40 q=-0.0 size= 2417184kB time=00:00:09.62 bitrate=2057306.1kbits/s speed=1.68x    frame=  252 fps= 40 q=-0.0 size= 2636928kB time=00:00:10.50 bitrate=2057306.1kbits/s speed=1.69x    frame=  273 fps= 40 q=-0.0 size= 2856672kB time=00:00:11.37 bitrate=2057306.1kbits/s speed=1.69x    frame=  294 fps= 40 q=-0.0 size= 3076416kB time=00:00:12.25 bitrate=2057306.1kbits/s speed=1.69x    frame=  312 fps= 40 q=-0.0 size= 3264768kB time=00:00:13.00 bitrate=2057306.1kbits/s speed=1.67x    frame=  331 fps= 40 q=-0.0 size= 3463584kB time=00:00:13.79 bitrate=2057306.1kbits/s speed=1.66x    frame=  348 fps= 40 q=-0.0 size= 3641472kB time=00:00:14.50 bitrate=2057306.1kbits/s speed=1.65x    frame=  366 fps= 39 q=-0.0 size= 3829824kB time=00:00:15.25 bitrate=2057306.1kbits/s speed=1.64x    frame=  377 fps= 38 q=-0.0 size= 3944928kB time=00:00:15.70 bitrate=2057306.2kbits/s speed= 1.6x    frame=  394 fps= 38 q=-0.0 size= 4122816kB time=00:00:16.41 bitrate=2057306.1kbits/s speed=1.59x    frame=  411 fps= 38 q=-0.0 size= 4300704kB time=00:00:17.12 bitrate=2057306.1kbits/s speed=1.57x    frame=  429 fps= 38 q=-0.0 size= 4489056kB time=00:00:17.87 bitrate=2057306.1kbits/s speed=1.56x    frame=  446 fps= 37 q=-0.0 size= 4666944kB time=00:00:18.58 bitrate=2057306.1kbits/s speed=1.56x    frame=  467 fps= 37 q=-0.0 size= 4886688kB time=00:00:19.45 bitrate=2057306.1kbits/s speed=1.56x    frame=  484 fps= 37 q=-0.0 size= 5064576kB time=00:00:20.16 bitrate=2057306.1kbits/s speed=1.54x    frame=  500 fps= 37 q=-0.0 size= 5232000kB time=00:00:20.83 bitrate=2057306.1kbits/s speed=1.53x    frame=  500 fps= 37 q=-0.0 Lsize= 5232000kB time=00:00:20.83 bitrate=2057306.1kbits/s speed=1.53x    
video:5232000kB audio:0kB subtitle:0kB other streams:0kB global headers:0kB muxing overhead: 0.000000%
